# xmcd
# Track frame offsets:
# 150
# 15757
# 26215
# 44525
# 59462
# 71265
# 77310
# 92512
# 106602
# 117340
# 123675
# 133925
# 138467
# 149497
# 156917
# 170920
# 181045
# 191820
# 199457
# 219902
# 233380
#
# Disc length: 3312 seconds
# Revision: 0
# Processed by: cddbd v1.5.1PL0 Copyright (c) Steve Scherf et al.
# Submitted via: VisiTrax 2.9.10.228 - For more info visit www.synapsa.com
#
DISCID=270cee15
DTITLE=George Jones and Tammy Wynette - Country Stars (Live)
DYEAR=1900
DGENRE=Country
TTITLE0=George Jones - No Show Jones
TTITLE1=George Jones - The Race Is On
TTITLE2=George Jones - Bartender Blues
TTITLE3=George Jones - I Always Get Lucky With You
TTITLE4=George Jones - She's My Rock
TTITLE5=The George Jones Band - Chicken Reel (Instrumental)
TTITLE6=George Jones - He Stopped Loving Her Today
TTITLE7=George Jones - Who's Gonna Fill Their Shoes
TTITLE8=George Jones - The One I Loved Back Then
TTITLE9=Tammy Wynette - Welcome To My World
TTITLE10=Tammy Wynette - Another Chance
TTITLE11=Tammy Wynette - Your Good Girl's Gonna Go Bad
TTITLE12=Tammy Wynette - D.I.V.O.R.C.E.
TTITLE13=Tammy Wynette - Singing My Song
TTITLE14=Tammy Wynette - 'Til I Can Make It On My Own
TTITLE15=Tammy Wynette - Womanhood
TTITLE16=Tammy Wynette - Fairy Tales
TTITLE17=Tammy Wynette - When The Grass Grows Over Me
TTITLE18=Tammy Wynette - Gospel Medley
TTITLE19=Tammy Wynette - Stand By Your Man
TTITLE20=Tammy Wynette - Cryin' In The Rain
EXTD=Possom PSBCD 0852\nChurch Street Station
EXTT0=
EXTT1=
EXTT2=
EXTT3=
EXTT4=
EXTT5=
EXTT6=
EXTT7=
EXTT8=
EXTT9=
EXTT10=
EXTT11=
EXTT12=
EXTT13=
EXTT14=
EXTT15=
EXTT16=
EXTT17=
EXTT18=
EXTT19=
EXTT20=
PLAYORDER=
